<?xml version="1.0" encoding="utf-8"?>
<!-- Generator: Adobe Illustrator 24.2.1, SVG Export Plug-In . SVG Version: 6.00 Build 0)  -->
<svg version="1.1" id="Layer_1" xmlns="http://www.w3.org/2000/svg" xmlns:xlink="http://www.w3.org/1999/xlink" x="0px" y="0px"
	 viewBox="0 0 189.8 184.3" style="enable-background:new 0 0 189.8 184.3;" xml:space="preserve">
<style type="text/css">
	.st0{fill:#F6A217;}
	.st1{fill:#1D1D1B;}
	.st2{fill:#E3E2E3;}
	.st3{fill:#232527;}
	.st4{fill:#DC2C39;}
	.st5{fill:#9D1E29;}
</style>
<g id="Layer_2_1_">
	<g id="Layer_1-2">
		<g id="Logo">
			<path class="st0" d="M40.4,180.3c-4.4,0-9.7-2-19.1-16.5c0,0,0-0.1-0.1-0.1c-3.3-5.3-1.8-12.1,3.3-15.6c4.1-2.7,11.2-7.5,18.9-13
				l-8.3-8.3c-4.5-4.5-7.1-10.7-7-17V74.5c0-2,0.2-3.9,0.7-5.9c-9-10.3-17.7-21-23-28.2c-2-2.7-2.2-6.2-0.7-9.2
				C5.8,30,6.7,29,7.8,28.2c1.2-1,2.6-1.7,4.1-2.1c0.4-1.7,1.3-3.4,2.6-4.7c0,0,0.1-0.1,0.1-0.1c1.3-1.3,2.9-2.1,4.6-2.6
				c0.4-1.7,1.3-3.3,2.6-4.6c1.4-1.3,3-2.3,4.7-2.7c0.5-1.8,1.4-3.4,2.8-4.8c1.7-1.7,4-2.6,6.3-2.6c1.8,0,3.6,0.6,5.2,1.7
				c7,5.1,17.1,13.3,26.9,21.8c3-1.3,6.2-2,9.5-2h35.4c6.4,0,12.6,2.6,17,7.1l1.6,1.6c14.2-10,26.9-15.3,37.2-15.3
				c2.7,0,5.2,0.4,7.5,1.1c0.6,0.2,1.1,0.4,1.4,0.6c4.1,1.8,7.1,5.5,8,10c1,4.9-0.6,9.9-4.2,13.5l-21.2,21.2c1.2,2.9,1.8,6,1.8,9.3
				v35.3c0,6.3-2.6,12.5-7.1,17l-1.1,1.1l21.2,19.8c0.1,0.1,0.1,0.1,0.2,0.2c3.5,3.5,4.3,8.7,2.2,13.9c-2.7,6.5-12.1,16-20.8,16
				c0,0,0,0,0,0c-3.1,0-5.9-1.2-8-3.3c-0.1-0.1-0.1-0.1-0.2-0.2l-19.8-21.2c-4.3,3.7-9.9,5.8-15.6,5.8H77.2c-3.2,0-6.3-0.6-9.2-1.8
				l-20.2,20.2C45.8,179.3,43.2,180.3,40.4,180.3z"/>
			<path class="st1" d="M77.2,150c-4,0-7.9-1.6-10.8-4.5l-25-25c-2.9-2.9-4.5-6.7-4.5-10.8V74.4c0-4,1.6-7.9,4.5-10.8l25-25
				c2.9-2.9,6.7-4.5,10.8-4.5h35.4c4,0,7.9,1.6,10.8,4.5l25,25c2.9,2.9,4.5,6.7,4.5,10.8v35.4c0,4-1.6,7.9-4.5,10.8l-25,25
				c-2.8,2.9-6.7,4.5-10.8,4.5H77.2z"/>
			<path class="st2" d="M77.2,148c-3.5,0-6.9-1.4-9.3-3.9l-25-25c-2.5-2.5-3.9-5.8-3.9-9.3V74.4c0-3.5,1.4-6.9,3.9-9.3l25-25
				c2.5-2.5,5.8-3.9,9.3-3.9h35.4c3.5,0,6.9,1.4,9.3,3.9l25,25c2.5,2.5,3.9,5.8,3.9,9.3v35.4c0,3.5-1.4,6.9-3.9,9.3l-25,25
				c-2.5,2.5-5.8,3.9-9.3,3.9H77.2z"/>
			<path class="st3" d="M173.6,28.4c-0.1,0-0.2-0.1-0.3-0.1c-8.5-2.7-29.1,1.5-63.9,36.4c-6,5.9-11.1,12.7-15.1,20.1l-8.5-7.9
				c4.6-10.6,7.3-13.1-5.5-26C69.7,40.4,48,21.8,35.6,12.7l0,0c-0.9,0.9-0.9,2.5,0,3.4l43.3,44l-3.7,3.7L30,20.2
				c-0.5-0.5-1.4-0.5-1.9,0l0,0c-0.5,0.5-0.5,1.4,0,1.9l43.5,45.3l-2.3,2.3l-0.6,0.6l-0.8,0.8L22.5,27.5c-0.5-0.5-1.3-0.5-1.8,0l0,0
				c-0.5,0.5-0.5,1.3,0,1.8l43.5,45.4l-3.7,3.7L16.6,35.2c-1-1-2.6-1-3.6,0h0c8.9,12.2,27.7,34.1,38.2,44.6
				c12.8,12.8,15.3,10.1,26,5.5l11.3,12.1c-2.2,5.6-3.6,10.3-5.2,13.5c-6.2,12.8-44.3,38.4-53.8,44.6c-1.2,0.8-1.5,2.3-0.8,3.5
				c3,4.6,10,14.8,12.8,12l59.8-59.8l53.2,57.1c3.9,3.9,18.4-9.9,14.2-14.2l-57.1-53.2l63.2-63.2C177.9,34.7,177.1,29.8,173.6,28.4z
				"/>
			<path class="st4" d="M107.6,41.3H82.1c-5.3,0-10.4,2.1-14.1,5.9L49.9,65.2c-3.7,3.7-5.8,8.8-5.9,14.1v25.6
				c0,5.3,2.1,10.4,5.9,14.1L68,137c3.7,3.7,8.8,5.8,14.1,5.9h25.6c5.3,0,10.4-2.1,14.1-5.9l18.1-18.1c3.7-3.7,5.8-8.8,5.9-14.1
				V79.3c0-5.3-2.1-10.4-5.9-14.1l-18.1-18.1C118,43.4,112.9,41.3,107.6,41.3z"/>
			<path class="st5" d="M61.3,72.1V72h2.6v0.2c0,1.7,0.6,2.1,2.2,2.1s2.1-0.4,2.1-1.5s-0.6-1.4-2.9-2.3c-2.5-0.9-3.9-1.8-3.9-4.2
				c0-2.5,1.4-3.8,4.6-3.8h0.2c3.2,0,4.7,1.4,4.7,4.4v0.1h-2.6v-0.2c0-1.5-0.6-2-2.2-2s-2,0.4-2,1.4c0,1.1,0.8,1.4,2.9,2.1
				c2.6,0.9,4,1.8,4,4.4s-1.3,4-4.6,4h-0.3C62.6,76.6,61.3,75.2,61.3,72.1z"/>
			<path class="st5" d="M76.7,65.3h-3.6v-2.6h9.9v2.6h-3.6v11.1h-2.8V65.3z"/>
			<path class="st5" d="M92.2,76.4l-2.4-5h-1.5v5h-2.7V62.7h3.8c4.1,0,5.6,1.3,5.6,4.3c0,2.1-0.7,3.4-2.5,4l2.6,5.4L92.2,76.4z
				 M88.3,68.9h1.5c1.8,0,2.5-0.5,2.5-1.8c0-1.3-0.6-1.8-2.5-1.8h-1.5V68.9z"/>
			<path class="st5" d="M97.8,62.7h9.1v2.6h-6.4v2.8h5.5v2.6h-5.5v3.1h6.4v2.6h-9.1V62.7z"/>
			<path class="st5" d="M109.9,62.7h9.1v2.6h-6.3v2.8h5.5v2.6h-5.5v3.1h6.4v2.6h-9.1V62.7z"/>
			<path class="st5" d="M124.8,65.3h-3.6v-2.6h9.9v2.6h-3.6v11.1h-2.8V65.3z"/>
			<path class="st5" d="M75.3,83.9h-9.7v4.5h8.6v4h-8.6v8.7h-4.3V79.9h14V83.9z"/>
			<path class="st5" d="M79.1,93.9v-6.8c0-5,2.5-7.7,7.3-7.7h0.2c4.7,0,7.3,2.6,7.3,7.7v6.8c0,4.9-2.4,7.6-7.2,7.6h-0.4
				C81.5,101.5,79.1,98.8,79.1,93.9z M89.6,94.3v-7.5c0-2.5-1-3.6-3.1-3.6c-2.1,0-3.1,1.1-3.1,3.6v7.5c0,2.5,1,3.5,3.1,3.5
				C88.5,97.7,89.6,96.7,89.6,94.3L89.6,94.3z"/>
			<path class="st5" d="M97.7,93.9v-6.8c0-5,2.5-7.7,7.3-7.7h0.2c4.7,0,7.3,2.6,7.3,7.7v6.8c0,4.9-2.4,7.6-7.2,7.6h-0.4
				C100.1,101.5,97.7,98.8,97.7,93.9z M108.2,94.3v-7.5c0-2.5-1-3.6-3.1-3.6s-3.1,1.2-3.1,3.6v7.5c0,2.5,1,3.5,3.1,3.5
				C107.1,97.7,108.2,96.7,108.2,94.3L108.2,94.3z"/>
			<path class="st5" d="M116.8,79.9h6.9c5,0,7.5,2.4,7.5,7.4v6.3c0,5.8-2.6,7.5-7.4,7.5h-6.9V79.9z M123.7,97.1
				c2.2,0,3.1-0.9,3.1-3.4v-6.6c0-2.4-0.9-3.3-3.1-3.3h-2.6V97L123.7,97.1z"/>
			<path class="st5" d="M61.3,119v-0.2h4v0.4c0,2.5,1,3.2,3.3,3.2c2.5,0,3.1-0.6,3.1-2.3c0-1.9-0.9-2.2-4.4-3.5
				c-3.8-1.4-6-2.6-6-6.4c0-3.8,2.2-5.8,7-5.8h0.2c4.9,0,7.1,2.1,7.1,6.7v0.2h-4v-0.4c0-2.3-1-3-3.3-3c-2.5,0-3.1,0.6-3.1,2.1
				c0,1.7,1.3,2.1,4.4,3.2c4,1.4,6,2.6,6,6.6c0,4.2-2,6.2-7,6.2h-0.5C63.3,125.9,61.3,123.7,61.3,119z"/>
			<path class="st5" d="M84.7,108.7h-5.4v-4h15.1v4h-5.4v16.8h-4.2V108.7z"/>
			<path class="st5" d="M97.9,118.5v-6.7c0-4.9,2.5-7.5,7.1-7.5h0.2c4.6,0,7.1,2.6,7.1,7.5v6.7c0,4.8-2.3,7.4-7,7.4h-0.4
				C100.2,125.9,97.9,123.3,97.9,118.5z M108.1,118.8v-7.4c0-2.4-1-3.5-3-3.5c-2,0-3,1.1-3,3.5v7.4c0,2.4,1,3.4,3,3.4
				C107.1,122.2,108.1,121.2,108.1,118.8z"/>
			<path class="st5" d="M116.5,104.7h6c6.3,0,8.7,2,8.7,6.7s-2.4,6.7-8.7,6.7h-1.8v7.3h-4.2L116.5,104.7z M122.9,114.2
				c3,0,4-0.7,4-2.8s-1.1-2.8-4-2.8h-2.3v5.6L122.9,114.2z"/>
			<path class="st0" d="M60,70.9v-0.1h2.6v0.2c0,1.7,0.6,2.1,2.2,2.1c1.6,0,2.1-0.4,2.1-1.5c0-1.1-0.6-1.4-2.9-2.3
				c-2.5-0.9-3.9-1.8-3.9-4.2c0-2.5,1.4-3.8,4.6-3.8h0.2c3.2,0,4.7,1.4,4.7,4.4v0.1h-2.6v-0.2c0-1.5-0.6-2-2.2-2c-1.5,0-2,0.4-2,1.4
				c0,1.1,0.8,1.4,2.9,2.1c2.6,0.9,4,1.8,4,4.4c0,2.6-1.3,4-4.6,4h-0.3C61.4,75.4,60,74,60,70.9z"/>
			<path class="st0" d="M75.4,64h-3.6v-2.6h9.9V64h-3.6v11.1h-2.8V64z"/>
			<path class="st0" d="M90.9,75.1l-2.4-5H87v5h-2.6V61.4h3.8c4.1,0,5.6,1.3,5.6,4.3c0,2.1-0.7,3.4-2.5,4l2.6,5.4H90.9z M87,67.6
				h1.5c1.8,0,2.5-0.5,2.5-1.8S90.4,64,88.5,64H87V67.6z"/>
			<path class="st0" d="M96.6,61.4h9.1v2.6h-6.4v2.8h5.5v2.6h-5.5v3.1h6.4v2.6h-9.1V61.4z"/>
			<path class="st0" d="M108.6,61.4h9.1v2.6h-6.4v2.8h5.5v2.6h-5.5v3.1h6.4v2.6h-9.1V61.4z"/>
			<path class="st0" d="M123.5,64H120v-2.6h9.9V64h-3.6v11.1h-2.8V64z"/>
			<path class="st0" d="M74,82.7h-9.7v4.5h8.6v4h-8.6v8.7H60V78.6h14V82.7z"/>
			<path class="st0" d="M77.9,92.7v-6.8c0-5,2.5-7.7,7.3-7.7h0.2c4.7,0,7.3,2.6,7.3,7.7v6.8c0,4.9-2.4,7.6-7.2,7.6H85
				C80.2,100.2,77.9,97.6,77.9,92.7z M88.3,93v-7.5c0-2.5-1-3.6-3.1-3.6c-2.1,0-3.1,1.1-3.1,3.6V93c0,2.5,1,3.5,3.1,3.5
				C87.3,96.5,88.3,95.5,88.3,93z"/>
			<path class="st0" d="M96.5,92.7v-6.8c0-5,2.5-7.7,7.3-7.7h0.2c4.7,0,7.3,2.6,7.3,7.7v6.8c0,4.9-2.4,7.6-7.2,7.6h-0.4
				C98.8,100.2,96.5,97.6,96.5,92.7z M106.9,93v-7.5c0-2.5-1-3.6-3.1-3.6c-2.1,0-3.1,1.1-3.1,3.6V93c0,2.5,1,3.5,3.1,3.5
				C105.9,96.5,106.9,95.5,106.9,93z"/>
			<path class="st0" d="M115.5,78.6h6.9c5,0,7.5,2.4,7.5,7.4v6.3c0,5.8-2.6,7.5-7.4,7.5h-6.9V78.6z M122.5,95.8
				c2.2,0,3.1-0.9,3.1-3.4v-6.6c0-2.4-0.9-3.3-3.1-3.3h-2.6v13.2L122.5,95.8z"/>
			<path class="st0" d="M60,117.8v-0.2h4v0.4c0,2.5,1,3.2,3.3,3.2c2.5,0,3.1-0.6,3.1-2.3c0-1.9-0.9-2.2-4.4-3.5
				c-3.8-1.4-6-2.6-6-6.4c0-3.8,2.2-5.8,7-5.8h0.2c4.9,0,7.1,2.1,7.1,6.7v0.2h-4v-0.4c0-2.3-1-3-3.3-3c-2.5,0-3.1,0.6-3.1,2.1
				c0,1.7,1.3,2.1,4.4,3.2c4,1.4,6,2.6,6,6.6c0,4.2-2,6.2-7,6.2h-0.5C62.1,124.7,60,122.5,60,117.8z"/>
			<path class="st0" d="M83.5,107.4H78v-4h15.1v4h-5.4v16.8h-4.2V107.4z"/>
			<path class="st0" d="M96.6,117.2v-6.7c0-4.9,2.5-7.5,7.1-7.5h0.2c4.6,0,7.1,2.6,7.1,7.5v6.7c0,4.8-2.3,7.4-7,7.4h-0.4
				C98.9,124.7,96.6,122,96.6,117.2z M106.9,117.6v-7.4c0-2.4-1-3.5-3-3.5s-3,1.1-3,3.5v7.4c0,2.4,1,3.4,3,3.4
				S106.9,120,106.9,117.6z"/>
			<path class="st0" d="M115.2,103.5h6c6.3,0,8.7,2,8.7,6.7s-2.4,6.7-8.7,6.7h-1.8v7.3h-4.2V103.5z M121.7,113c3,0,4-0.7,4-2.8
				s-1.1-2.8-4-2.8h-2.3v5.6L121.7,113z"/>
		</g>
	</g>
</g>
</svg>
