<?xml version="1.0" encoding="utf-8"?>
<!-- Generator: Adobe Illustrator 24.2.1, SVG Export Plug-In . SVG Version: 6.00 Build 0)  -->
<svg version="1.1" id="Layer_1" xmlns="http://www.w3.org/2000/svg" xmlns:xlink="http://www.w3.org/1999/xlink" x="0px" y="0px"
	 viewBox="0 0 189.8 184.3" style="enable-background:new 0 0 189.8 184.3;" xml:space="preserve">
<style type="text/css">
	.st0{fill:#1D1D1B;}
	.st1{fill:#E3E2E3;}
	.st2{fill:#232527;}
	.st3{fill:#DC2C39;}
	.st4{fill:#9D1E29;}
	.st5{fill:#F6A217;}
</style>
<g id="Layer_2_1_">
	<g id="Content">
		<g id="Outside">
			<g id="Front">
				<g id="Logo">
					<path class="st0" d="M74.8,157.9c-4.6,0-9-1.8-12.2-5.1l-28.4-28.4c-3.2-3.2-5.1-7.6-5.1-12.2V72.1c0-4.6,1.8-9,5.1-12.2
						l28.4-28.4c3.2-3.3,7.6-5.1,12.2-5.1H115c4.6,0,9,1.8,12.2,5.1l28.4,28.4c3.3,3.2,5.1,7.6,5.1,12.2v40.1c0,4.6-1.8,9-5.1,12.2
						l-28.4,28.4c-3.2,3.2-7.6,5.1-12.2,5.1H74.8z"/>
					<path class="st1" d="M74.8,155.6c-4,0-7.8-1.6-10.6-4.4l-28.4-28.4c-2.8-2.8-4.4-6.6-4.4-10.6V72.1c0-4,1.6-7.8,4.4-10.6
						l28.4-28.4c2.8-2.8,6.6-4.4,10.6-4.4H115c4,0,7.8,1.6,10.6,4.4L154,61.5c2.8,2.8,4.4,6.6,4.4,10.6v40.1c0,4-1.6,7.8-4.4,10.6
						l-28.4,28.4c-2.8,2.8-6.6,4.4-10.6,4.4H74.8z"/>
					<path class="st2" d="M184.2,19.9c-0.1,0-0.2-0.1-0.4-0.2c-9.7-3.1-33.1,1.8-72.6,41.2c-6.8,6.7-12.6,14.4-17.1,22.8l-9.7-9
						c5.2-12.1,8.3-14.9-6.2-29.5C66.4,33.4,41.7,12.3,27.6,2l0,0c-1.1,1.1-1.1,2.8,0,3.8l49.2,49.9L72.5,60L21.2,10.5
						c-0.6-0.6-1.6-0.6-2.2,0l0,0c-0.6,0.6-0.6,1.6,0,2.2l49.4,51.4l-2.6,2.6l-0.6,0.6l-0.9,0.9L12.8,18.8c-0.6-0.5-1.4-0.5-2,0l0,0
						c-0.5,0.6-0.5,1.4,0,2l49.4,51.5L56,76.6l-49.9-49c-1.1-1.1-3-1.1-4.1,0h0c10.1,13.8,31.4,38.7,43.3,50.6
						c14.6,14.6,17.4,11.4,29.5,6.2l12.8,13.7c-2.5,6.4-4.1,11.7-5.9,15.3c-7.1,14.6-50.3,43.6-61,50.7c-1.3,0.9-1.7,2.7-0.9,4
						c3.4,5.3,11.4,16.8,14.5,13.6l67.9-67.9l60.4,64.7c4.4,4.4,20.9-11.3,16.1-16.1l-64.7-60.4l71.7-71.7
						C189.1,27,188.2,21.5,184.2,19.9z"/>
					<path class="st3" d="M109.4,34.5h-29c-6,0-11.8,2.4-16,6.6L43.9,61.6c-4.2,4.2-6.6,10-6.6,16v29c0,6,2.4,11.8,6.6,16l20.5,20.5
						c4.2,4.2,10,6.6,16,6.6h29c6,0,11.8-2.4,16-6.6l20.5-20.5c4.2-4.2,6.6-10,6.6-16v-29c0-6-2.4-11.8-6.6-16l-20.5-20.5
						C121.1,36.9,115.4,34.5,109.4,34.5z"/>
					<path class="st4" d="M56.7,69.4v-0.2h3v0.3c0,1.9,0.7,2.4,2.5,2.4s2.3-0.5,2.3-1.7s-0.7-1.6-3.3-2.6c-2.8-1.1-4.5-2-4.5-4.8
						c0-2.8,1.6-4.4,5.3-4.4h0.2c3.6,0,5.3,1.6,5.3,5v0.2h-3v-0.3c0-1.7-0.7-2.2-2.5-2.2s-2.3,0.5-2.3,1.6c0,1.3,0.9,1.6,3.3,2.4
						c3,1.1,4.5,2,4.5,5s-1.5,4.6-5.3,4.6H62C58.3,74.6,56.7,73,56.7,69.4z"/>
					<path class="st4" d="M74.3,61.7h-4.1v-3h11.3v3h-4.1v12.5h-3.1V61.7z"/>
					<path class="st4" d="M91.8,74.3l-2.8-5.7h-1.7v5.7h-3.1V58.7h4.4c4.6,0,6.4,1.5,6.4,4.9c0,2.4-0.8,3.8-2.8,4.5l3,6.1L91.8,74.3
						z M87.4,65.7h1.7c2.1,0,2.8-0.5,2.8-2s-0.7-2-2.8-2h-1.7V65.7z"/>
					<path class="st4" d="M98.2,58.7h10.3v3h-7.2v3.2h6.3v2.9h-6.3v3.5h7.2v3H98.2V58.7z"/>
					<path class="st4" d="M111.9,58.7h10.3v3H115v3.2h6.3v2.9H115v3.5h7.2v3h-10.3V58.7z"/>
					<path class="st4" d="M128.8,61.7h-4.1v-3H136v3H132v12.5h-3.1V61.7z"/>
					<path class="st4" d="M72.7,82.8h-11v5.1h9.8v4.5h-9.8v9.8h-4.9v-24h15.9V82.8z"/>
					<path class="st4" d="M77,94.2v-7.7c0-5.7,2.9-8.7,8.2-8.7h0.3c5.4,0,8.2,3,8.2,8.7v7.7c0,5.6-2.7,8.6-8.1,8.6h-0.5
						C79.7,102.8,77,99.7,77,94.2z M88.9,94.6V86c0-2.8-1.2-4.1-3.5-4.1s-3.5,1.3-3.5,4.1v8.5c0,2.8,1.2,4,3.5,4
						S88.9,97.4,88.9,94.6L88.9,94.6z"/>
					<path class="st4" d="M98.1,94.2v-7.7c0-5.7,2.9-8.7,8.2-8.7h0.3c5.4,0,8.2,3,8.2,8.7v7.7c0,5.6-2.7,8.6-8.1,8.6h-0.5
						C100.8,102.8,98.1,99.7,98.1,94.2z M110,94.6V86c0-2.8-1.2-4.1-3.5-4.1S103,83.3,103,86v8.5c0,2.8,1.2,4,3.5,4
						S110,97.4,110,94.6L110,94.6z"/>
					<path class="st4" d="M119.7,78.2h7.8c5.7,0,8.5,2.8,8.5,8.4v7.1c0,6.6-3,8.5-8.4,8.5h-7.9V78.2z M127.6,97.8
						c2.5,0,3.6-1,3.6-3.8v-7.5c0-2.8-1.1-3.7-3.6-3.7h-3v15L127.6,97.8z"/>
					<path class="st4" d="M56.7,122.7v-0.2h4.5v0.4c0,2.9,1.1,3.6,3.8,3.6c2.8,0,3.5-0.7,3.5-2.6c0-2.1-1-2.5-5-4
						c-4.3-1.6-6.8-3-6.8-7.3s2.5-6.6,8-6.6h0.3c5.5,0,8.1,2.4,8.1,7.6v0.2h-4.5v-0.4c0-2.6-1.1-3.4-3.7-3.4c-2.8,0-3.5,0.7-3.5,2.4
						c0,1.9,1.4,2.4,5,3.6c4.6,1.6,6.8,3,6.8,7.5c0,4.7-2.3,7-8,7h-0.5C59.1,130.5,56.7,128,56.7,122.7z"/>
					<path class="st4" d="M83.4,110.9h-6.2v-4.5h17.1v4.5h-6.2V130h-4.8V110.9z"/>
					<path class="st4" d="M98.3,122.1v-7.6c0-5.6,2.8-8.5,8.1-8.5h0.3c5.3,0,8.1,2.9,8.1,8.5v7.6c0,5.4-2.6,8.4-8,8.4h-0.5
						C100.9,130.5,98.3,127.5,98.3,122.1z M109.9,122.4v-8.4c0-2.7-1.1-4-3.4-4s-3.4,1.2-3.4,4v8.4c0,2.7,1.1,3.9,3.4,3.9
						S109.9,125.2,109.9,122.4z"/>
					<path class="st4" d="M119.4,106.4h6.8c7.2,0,9.9,2.3,9.9,7.6s-2.7,7.6-9.9,7.6h-2v8.3h-4.7L119.4,106.4z M126.7,117.2
						c3.4,0,4.6-0.8,4.6-3.2s-1.2-3.2-4.6-3.2h-2.6v6.4L126.7,117.2z"/>
					<path class="st5" d="M55.3,68v-0.2h3v0.3c0,1.9,0.7,2.4,2.5,2.4s2.3-0.5,2.3-1.7s-0.7-1.6-3.3-2.6c-2.8-1.1-4.5-2-4.5-4.8
						c0-2.8,1.6-4.3,5.3-4.3h0.2c3.6,0,5.3,1.6,5.3,5v0.2h-3v-0.3c0-1.7-0.7-2.2-2.5-2.2s-2.3,0.5-2.3,1.6c0,1.3,0.9,1.6,3.3,2.4
						c3,1.1,4.5,2,4.5,5s-1.5,4.5-5.2,4.5h-0.3C56.9,73.2,55.3,71.5,55.3,68z"/>
					<path class="st5" d="M72.8,60.3h-4.1v-3h11.3v3H76v12.6h-3.1V60.3z"/>
					<path class="st5" d="M90.4,72.8l-2.8-5.7H86v5.7h-3V57.3h4.3c4.6,0,6.4,1.5,6.4,4.9c0,2.4-0.8,3.8-2.8,4.5l3,6.1L90.4,72.8z
						 M86,64.3h1.7c2.1,0,2.8-0.5,2.8-2s-0.7-2-2.8-2H86V64.3z"/>
					<path class="st5" d="M96.8,57.3h10.3v3h-7.2v3.2h6.3v2.9h-6.3v3.5h7.2v3H96.8V57.3z"/>
					<path class="st5" d="M110.5,57.3h10.3v3h-7.2v3.2h6.3v2.9h-6.3v3.5h7.2v3h-10.3V57.3z"/>
					<path class="st5" d="M127.4,60.3h-4.1v-3h11.3v3h-4.1v12.6h-3.2V60.3z"/>
					<path class="st5" d="M71.2,81.4h-11v5.1H70V91h-9.8v9.8h-4.9v-24h15.9V81.4z"/>
					<path class="st5" d="M75.6,92.8V85c0-5.7,2.9-8.7,8.2-8.7h0.3c5.4,0,8.2,3,8.2,8.7v7.7c0,5.6-2.7,8.6-8.1,8.6h-0.5
						C78.3,101.3,75.6,98.3,75.6,92.8z M87.5,93.2v-8.5c0-2.8-1.2-4.1-3.5-4.1s-3.5,1.3-3.5,4.1v8.5c0,2.8,1.2,4,3.5,4
						S87.5,95.9,87.5,93.2z"/>
					<path class="st5" d="M96.7,92.8V85c0-5.7,2.9-8.7,8.2-8.7h0.3c5.4,0,8.2,3,8.2,8.7v7.7c0,5.6-2.7,8.6-8.1,8.6h-0.5
						C99.4,101.3,96.7,98.3,96.7,92.8z M108.6,93.2v-8.5c0-2.8-1.2-4.1-3.5-4.1s-3.5,1.3-3.5,4.1v8.5c0,2.8,1.2,4,3.5,4
						S108.6,95.9,108.6,93.2z"/>
					<path class="st5" d="M118.3,76.8h7.8c5.7,0,8.5,2.8,8.5,8.4v7.1c0,6.6-3,8.5-8.4,8.5h-7.9V76.8z M126.2,96.4
						c2.5,0,3.6-1,3.6-3.8V85c0-2.8-1.1-3.7-3.6-3.7h-3v15L126.2,96.4z"/>
					<path class="st5" d="M55.3,121.3V121h4.5v0.4c0,2.9,1.1,3.6,3.8,3.6c2.8,0,3.5-0.7,3.5-2.6c0-2.1-1-2.5-5-4
						c-4.3-1.6-6.8-3-6.8-7.3s2.5-6.6,8-6.6h0.3c5.5,0,8.1,2.4,8.1,7.6v0.2h-4.5v-0.4c0-2.6-1.1-3.4-3.7-3.4c-2.8,0-3.5,0.7-3.5,2.4
						c0,1.9,1.4,2.4,5,3.6c4.6,1.6,6.8,3,6.8,7.5c0,4.7-2.3,7-8,7h-0.5C57.7,129.1,55.3,126.6,55.3,121.3z"/>
					<path class="st5" d="M82,109.5h-6.2V105h17.1v4.5h-6.2v19.1H82V109.5z"/>
					<path class="st5" d="M96.8,120.6V113c0-5.6,2.8-8.5,8.1-8.5h0.3c5.3,0,8.1,2.9,8.1,8.5v7.6c0,5.4-2.6,8.4-8,8.4h-0.5
						C99.5,129.1,96.8,126.1,96.8,120.6z M108.5,121v-8.3c0-2.7-1.1-4-3.4-4s-3.4,1.2-3.4,4v8.3c0,2.7,1.1,3.9,3.4,3.9
						S108.5,123.8,108.5,121z"/>
					<path class="st5" d="M118,105h6.8c7.2,0,9.9,2.3,9.9,7.6s-2.7,7.6-9.9,7.6h-2v8.3H118V105z M125.3,115.8c3.4,0,4.6-0.8,4.6-3.2
						s-1.2-3.2-4.6-3.2h-2.6v6.4L125.3,115.8z"/>
				</g>
			</g>
		</g>
	</g>
</g>
</svg>
